# xmcd
# 
# Track frame offsets:
#     187
#     17250
#     35267
#     55272
#     70945
#     89290
#     103185
#     106522
#     112905
#     135380
#     141490
#     146690
#     150227
#     161537
#     172165
#     182547
# 
# Disc length: 2685
# 
# Revision: 2
# Processed by: cddbd v1.5.2PL0 Copyright (c) Steve Scherf et al.
# Submitted via: BonkEnc v1.0.8
# 
DISCID=c80a7b10
DTITLE=サウンドトラック - 夢幻紳士
DYEAR=0
DGENRE=Soundtrack
TTITLE0=少年探偵 夢幻魔実也参上！～魔実也のテーマ～
TTITLE1=悪人家業は楽しいアルヨ～老博士のテーマ～
TTITLE2=忍び寄る影～ワニ男のテーマ～
TTITLE3=口もアライが、気もアライ～温子のテーマ～
TTITLE4=夢幻恋唄～夢幻紳士のテーマ～
TTITLE5=中華羅愚～老の手下のテーマ～
TTITLE6=事件の発端
TTITLE7=恐怖のワニ男
TTITLE8=里見桜子 幻のリサイタル
TTITLE9=逃げ足ハヤイコト大切アルネ
TTITLE10=船上の謀み
TTITLE11=夢幻魔実也潜入
TTITLE12=ピラミッドの謎
TTITLE13=危うし、魔実也！
TTITLE14=データファイル合戦
TTITLE15=夢幻恋唄（インストルメンタル）
EXTD=
EXTT0=
EXTT1=
EXTT2=
EXTT3=
EXTT4=
EXTT5=
EXTT6=
EXTT7=
EXTT8=
EXTT9=
EXTT10=
EXTT11=
EXTT12=
EXTT13=
EXTT14=
EXTT15=
PLAYORDER=
